<?xml version="1.0" standalone="no"?>
<!DOCTYPE svg PUBLIC "-//W3C//DTD SVG 20010904//EN"
 "http://www.w3.org/TR/2001/REC-SVG-20010904/DTD/svg10.dtd">
<svg version="1.0" xmlns="http://www.w3.org/2000/svg"
 width="1080.000000pt" height="329.000000pt" viewBox="0 0 1080.000000 329.000000"
 preserveAspectRatio="xMidYMid meet">

<g transform="translate(0.000000,329.000000) scale(0.100000,-0.100000)"
fill="#000000" stroke="none">
<path d="M4724 3025 c-5 -21 3 -57 32 -130 4 -12 -15 1 -47 31 -62 58 -94 78
-115 70 -26 -10 -15 -41 46 -130 33 -49 60 -90 60 -93 0 -2 -21 12 -46 31
-140 107 -208 87 -101 -30 28 -32 45 -55 36 -52 -52 20 -99 30 -113 25 -29
-11 -18 -48 26 -86 22 -20 87 -78 142 -129 112 -104 143 -128 154 -118 7 8
-186 196 -201 196 -5 0 -5 5 -2 10 3 6 2 10 -3 10 -11 0 -110 89 -99 90 5 0
50 -20 102 -45 51 -25 100 -43 108 -39 17 6 11 44 -7 44 -20 1 -173 160 -153
160 9 0 17 -5 17 -12 0 -6 3 -9 6 -5 7 7 94 -53 139 -95 16 -15 35 -28 42 -28
25 0 17 27 -25 90 -25 36 -45 70 -45 77 0 7 -4 10 -8 8 -7 -5 -62 85 -56 91 8
9 96 -73 156 -144 67 -78 83 -64 35 31 -39 75 -66 159 -55 170 19 19 100 -122
141 -248 30 -93 39 -103 62 -73 9 13 18 29 18 35 0 28 45 103 58 98 7 -2 10 0
7 5 -3 6 -1 10 4 10 13 0 13 -5 0 -170 -30 -375 62 -737 270 -1065 63 -98 181
-245 198 -245 19 0 16 11 -11 39 -78 84 -225 319 -285 457 -111 256 -157 548
-131 837 12 139 9 163 -21 172 -36 12 -58 -5 -91 -72 -26 -53 -33 -62 -40 -47
-4 11 -19 50 -34 89 -34 87 -89 182 -114 195 -31 16 -49 12 -56 -15z"/>
<path d="M6179 2855 c-56 -30 -126 -176 -102 -214 28 -45 96 -2 142 90 33 66
39 107 19 127 -15 15 -27 15 -59 -3z"/>
<path d="M9026 2724 c-68 -21 -135 -91 -165 -171 -43 -116 -44 -279 0 -455
l21 -87 -21 -56 c-29 -76 -36 -157 -21 -230 12 -60 51 -148 70 -160 5 -3 15
-15 20 -25 9 -17 5 -22 -27 -39 -90 -46 -139 -129 -129 -219 l6 -54 -40 7
c-53 9 -273 63 -467 114 -233 62 -393 79 -515 55 -23 -5 -31 0 -53 35 -14 23
-29 58 -34 79 -9 41 -10 42 -89 10 -38 -16 -55 -19 -63 -11 -9 9 10 22 70 52
44 23 81 46 81 51 0 13 -2 13 -89 -5 -66 -14 -75 -14 -91 0 -19 17 -30 19 -30
6 0 -19 32 -41 58 -41 l26 0 -34 -29 c-30 -25 -33 -31 -21 -45 17 -20 61 -21
108 -1 44 19 43 19 43 -4 0 -10 11 -39 25 -65 14 -26 25 -49 25 -50 0 -2 -11
-7 -24 -10 -13 -3 -46 -26 -73 -50 -120 -108 -148 -319 -64 -487 l29 -59 -51
0 c-141 0 -382 -11 -389 -18 -5 -5 -5 -20 0 -33 5 -13 26 -98 48 -189 21 -91
42 -168 46 -171 5 -3 -25 -77 -66 -165 -70 -148 -78 -174 -56 -174 9 0 70 123
142 285 22 50 47 97 55 105 12 13 57 15 310 12 163 -1 298 -4 300 -6 4 -4 -14
-43 -122 -269 -25 -54 -34 -82 -27 -89 7 -7 15 0 25 23 8 19 31 69 52 112 36
78 37 79 57 60 19 -17 20 -17 40 7 17 21 19 36 16 92 -2 37 -9 73 -16 80 -10
10 -91 14 -332 16 l-319 3 -19 -37 -19 -37 -41 166 c-23 92 -42 168 -42 170 0
2 178 3 395 3 217 0 395 -2 395 -3 0 -8 135 -586 151 -645 14 -50 26 -78 35
-78 8 0 14 2 14 4 0 2 -38 158 -84 347 -46 189 -88 362 -93 384 l-9 40 -88 3
c-82 3 -88 4 -82 22 3 11 9 29 12 40 12 38 -24 21 -43 -20 l-18 -39 -68 -1
c-65 0 -68 1 -87 33 -16 25 -60 145 -60 163 0 2 19 9 43 16 42 13 147 102 147
126 0 16 -27 15 -37 -1 -13 -21 -74 -64 -117 -81 l-39 -16 5 62 c14 174 123
273 310 283 68 3 231 -17 323 -40 140 -36 132 -32 159 -86 50 -98 122 -167
161 -153 14 6 5 19 -48 73 -36 36 -70 77 -77 89 -10 21 -10 23 7 19 206 -61
462 -103 476 -80 4 6 -1 32 -9 58 -21 59 -14 114 20 166 l26 39 38 -39 c29
-31 49 -41 95 -51 63 -13 140 -2 184 26 13 8 53 17 90 20 68 5 171 34 209 59
13 8 26 10 35 4 21 -13 80 -10 109 5 21 12 27 11 55 -9 64 -47 157 -58 256
-29 152 44 264 178 276 329 9 100 -41 192 -141 262 l-29 20 -1 134 c-1 125 -3
138 -28 189 -37 75 -128 166 -197 199 -55 25 -60 26 -238 23 -203 -3 -190 -6
-297 71 -65 48 -141 78 -191 76 -11 0 -42 -7 -69 -15z m157 -543 c15 -29 15
-30 -10 -20 -30 11 -43 4 -43 -22 0 -13 -7 -19 -22 -19 -13 0 -34 -9 -48 -20
-50 -39 -79 -13 -30 28 26 22 125 82 136 82 1 0 9 -13 17 -29z m143 -46 c-12
-35 58 -80 109 -71 31 6 33 5 39 -28 7 -37 49 -76 83 -76 16 0 18 -8 17 -70 0
-57 -4 -74 -20 -91 l-21 -20 -61 36 c-58 35 -60 38 -51 63 5 14 9 36 7 47 -1
12 3 29 10 38 21 25 5 55 -41 76 -44 20 -77 14 -77 -14 0 -8 -9 -15 -21 -15
-11 0 -29 -4 -39 -10 -16 -8 -18 -5 -22 30 -2 27 2 45 12 56 13 14 12 17 -10
37 l-25 22 57 0 c35 0 57 -4 54 -10z m-162 -55 c83 -31 29 -160 -67 -160 -22
0 -27 4 -23 18 8 24 -9 46 -29 38 -27 -10 -35 2 -23 34 13 39 56 70 110 79 4
0 18 -3 32 -9z m-172 -76 c-1 -32 1 -64 5 -70 16 -21 58 -44 82 -44 23 0 23
-1 7 -19 -18 -20 -14 -41 7 -41 6 0 27 16 47 35 l37 36 0 -35 c0 -85 102 -118
189 -61 22 14 27 13 83 -17 45 -24 61 -38 65 -59 7 -37 35 -52 67 -35 30 15
88 4 106 -20 40 -55 -12 -155 -95 -182 -33 -11 -48 -9 -89 10 -17 8 -32 6 -65
-9 -114 -53 -259 -56 -367 -7 -70 31 -136 97 -170 169 -42 90 -36 231 15 330
54 103 81 110 76 19z m368 -34 c33 -17 39 -41 26 -93 -7 -26 -15 -48 -19 -48
-4 0 -22 -6 -41 -14 -53 -22 -64 -19 -68 18 -2 26 -7 32 -25 30 -46 -5 -24 65
30 97 36 22 69 25 97 10z"/>
<path d="M8990 1705 c0 -53 79 -88 111 -49 17 21 -7 37 -34 23 -21 -12 -43 1
-52 32 -9 27 -25 23 -25 -6z"/>
<path d="M5614 2691 c-55 -14 -120 -50 -158 -89 -128 -127 -137 -370 -17 -487
27 -26 30 -37 31 -86 0 -42 5 -63 21 -83 28 -35 45 -20 24 20 -23 47 -14 136
19 179 25 32 46 45 46 28 0 -5 -5 -37 -11 -73 -5 -36 -16 -108 -24 -160 -38
-249 -1 -383 124 -453 144 -81 311 -1 413 198 36 71 47 85 67 85 37 0 108 38
131 70 13 18 33 30 57 35 96 18 201 103 250 203 24 50 28 68 28 147 0 103 -16
144 -82 210 -62 62 -140 93 -295 115 -141 20 -222 43 -371 105 -92 38 -191 52
-253 36z m86 -387 c14 -16 46 -45 73 -63 26 -19 47 -38 47 -43 0 -4 3 -7 8 -7
15 3 27 -2 47 -17 20 -15 20 -15 -5 -34 -23 -18 -24 -20 -5 -21 11 -1 25 0 30
1 41 10 95 11 95 0 0 -6 5 -8 10 -5 6 4 26 1 45 -5 27 -9 34 -16 33 -38 -1
-39 13 -96 25 -104 15 -9 12 -75 -3 -93 -7 -8 -10 -15 -6 -15 3 0 0 -16 -8
-35 -8 -19 -13 -35 -10 -35 5 0 -36 -83 -45 -90 -4 -3 -15 -24 -26 -48 -19
-44 -87 -112 -138 -138 -109 -57 -250 9 -290 136 -17 54 -18 206 -3 285 4 17
8 46 10 65 3 19 7 44 9 55 3 12 8 46 12 78 7 55 8 57 37 57 113 0 178 -145
124 -275 -19 -46 -19 -45 -2 -45 14 0 46 67 46 96 0 8 4 13 8 10 16 -10 -8
127 -28 159 -25 40 -76 85 -96 85 -8 0 -14 4 -14 9 0 4 -12 6 -26 3 -22 -4
-25 -2 -21 14 3 11 9 41 13 68 5 39 9 46 18 34 6 -8 22 -28 36 -44z m536 -268
c7 -8 19 -16 25 -18 6 -2 13 -20 16 -41 5 -42 -21 -109 -53 -139 -20 -17 -74
-41 -80 -35 -4 3 8 46 23 87 11 29 13 36 22 87 14 75 21 84 47 59z"/>
<path d="M5630 2068 c-11 -12 -20 -25 -20 -30 0 -13 20 -9 36 7 23 23 36 18
23 -7 -15 -28 -15 -25 12 -49 28 -24 30 -24 58 2 23 22 23 58 -1 86 -18 22
-85 16 -108 -9z"/>
<path d="M5915 2072 c-24 -5 -59 -33 -62 -50 -4 -17 22 -15 37 3 16 19 30 19
30 -1 0 -8 -4 -12 -10 -9 -7 4 -7 -2 -1 -18 6 -14 8 -27 5 -29 -4 -5 15 -8 50
-9 36 0 48 49 21 88 -16 23 -40 31 -70 25z"/>
<path d="M5702 1763 c-23 -24 -31 -67 -15 -81 7 -7 10 -19 7 -25 -4 -7 -4 -9
1 -5 4 4 13 3 20 -2 14 -12 96 -19 89 -8 -3 4 -1 8 5 8 36 0 54 69 25 101 -13
14 -21 16 -46 7 -19 -7 -33 -7 -37 -1 -11 17 -36 21 -49 6z"/>
<path d="M1933 2600 c-80 -46 -161 -161 -179 -256 -3 -18 -20 -49 -37 -69 -56
-68 -248 -225 -397 -323 -257 -170 -344 -246 -425 -371 -235 -363 -86 -786
330 -936 28 -10 52 -20 54 -22 2 -1 -26 -46 -61 -100 -174 -261 -308 -481
-308 -506 0 -10 8 -17 19 -17 21 0 38 22 120 150 111 173 277 427 296 452 11
14 36 49 55 77 150 220 371 485 450 541 27 19 28 19 68 0 23 -11 48 -20 57
-20 19 0 19 -3 -5 -70 -13 -37 -19 -82 -20 -138 0 -46 -5 -92 -10 -102 -6 -10
-6 -21 -2 -24 20 -12 103 44 187 126 l90 87 29 -27 c16 -15 57 -86 92 -158
l64 -131 -11 -56 c-17 -95 -19 -93 188 -101 98 -3 236 -9 307 -12 l128 -6 -6
-41 c-4 -23 -9 -43 -11 -45 -2 -2 -27 1 -56 8 -56 14 -172 17 -207 6 -46 -15
-19 -26 64 -26 80 0 169 -14 187 -30 4 -4 3 -38 -3 -76 -5 -38 -11 -82 -13
-99 -5 -44 -45 -47 -81 -4 -36 43 -24 51 17 11 18 -18 36 -32 40 -32 17 0 4
29 -25 57 -69 65 -121 34 -62 -36 l26 -31 -28 0 c-57 0 -158 141 -138 193 3 8
1 18 -5 21 -15 9 -24 -37 -17 -79 4 -19 22 -55 41 -80 19 -25 35 -47 35 -50 0
-3 -16 -5 -34 -5 -85 0 -137 -119 -84 -190 12 -17 25 -30 29 -30 4 0 10 33 14
73 12 118 6 113 124 109 l102 -3 -2 -50 c-3 -56 12 -80 38 -63 9 6 20 17 24
25 7 14 50 271 111 659 33 207 32 271 -4 294 -32 20 -52 -5 -64 -78 -6 -36
-14 -69 -17 -73 -11 -10 -68 48 -83 84 -32 75 -6 168 62 219 41 32 121 43 176
25 44 -15 96 -68 113 -117 14 -41 35 -58 35 -27 -1 35 -38 100 -75 130 -73 60
-168 67 -252 18 -65 -39 -101 -115 -105 -223 -3 -59 24 -107 82 -147 36 -25
40 -32 35 -59 -8 -49 -25 -170 -25 -185 0 -12 -41 -13 -267 -8 -147 4 -270 10
-275 15 -4 4 8 93 27 197 19 105 44 242 55 305 27 151 60 339 66 368 4 21 8
22 117 22 61 0 216 -5 342 -10 127 -5 343 -12 482 -16 138 -4 256 -10 262 -13
8 -5 -12 -133 -64 -422 -41 -228 -77 -424 -80 -436 -5 -23 -7 -23 -195 -23
-168 0 -220 -6 -192 -24 5 -3 94 -8 198 -12 155 -5 192 -4 201 7 13 16 41 161
103 524 23 132 45 262 50 288 14 66 12 113 -2 125 -13 10 -91 13 -823 33 -284
7 -391 7 -393 -1 -3 -8 -8 -8 -17 0 -9 7 -15 7 -22 -2 -5 -7 -25 -102 -44
-210 -19 -109 -36 -198 -39 -198 -3 0 -18 23 -35 51 -16 28 -48 68 -71 89 -36
33 -42 44 -47 95 -6 62 -28 105 -53 105 -12 0 -14 -4 -7 -12 17 -21 30 -90 27
-140 -4 -60 -31 -122 -88 -202 -42 -59 -180 -196 -198 -196 -13 0 -9 98 8 163
28 107 103 198 175 212 35 7 48 25 18 26 -13 1 -31 0 -38 -1 -20 -3 -111 -63
-111 -73 0 -5 -7 -15 -15 -23 -13 -13 -18 -13 -42 2 -46 29 -74 57 -94 95 -28
57 -30 87 -7 135 25 55 78 96 78 63 0 -22 71 -99 115 -124 45 -27 90 -40 80
-24 -4 5 0 9 8 9 22 0 47 34 53 72 6 32 11 36 60 52 157 49 274 243 274 450
-1 204 -112 407 -264 479 -106 50 -194 59 -283 28 -61 -21 -66 -14 -22 23 66
55 85 61 219 61 109 0 131 -3 175 -23 117 -54 185 -173 185 -328 0 -59 1 -61
38 -85 58 -37 74 -78 70 -179 -4 -99 -40 -193 -80 -209 -13 -5 -32 -13 -43
-17 -16 -7 -12 -9 19 -12 49 -4 78 21 116 101 55 115 46 254 -21 323 -18 19
-38 34 -44 34 -7 0 -16 35 -22 83 -28 202 -109 303 -278 343 -96 22 -235 15
-298 -15 -108 -52 -174 -190 -190 -393 -6 -65 5 -97 23 -68 12 20 43 7 66 -28
54 -79 54 -276 0 -346 -32 -43 -103 -63 -163 -47 -103 28 -165 170 -128 296
17 61 67 124 100 129 22 3 24 12 49 159 26 155 94 260 202 313 30 14 54 28 54
30 0 13 -53 -1 -97 -26z m434 -254 c39 -35 113 -146 113 -167 0 -2 -18 -5 -40
-6 -81 -5 -141 -57 -166 -142 -18 -60 -14 -113 10 -163 11 -20 13 -34 6 -36
-15 -5 -12 -32 4 -32 7 0 19 7 26 15 10 12 9 22 -6 52 -44 88 -10 214 66 253
82 42 124 18 135 -79 24 -210 -80 -420 -238 -478 -42 -15 -125 -16 -168 -1
-49 16 -111 61 -142 102 l-27 35 20 39 c31 59 43 151 30 239 -13 95 -13 91 10
98 12 4 55 29 96 57 71 47 78 50 110 40 53 -16 54 13 1 31 -16 6 -14 11 15 54
18 27 42 67 52 91 10 23 25 42 31 42 7 0 35 -20 62 -44z m39 -1195 c20 -40 36
-80 36 -90 0 -33 -28 -220 -35 -227 -1 -1 -16 28 -34 66 l-31 70 28 -15 c32
-17 48 -5 26 18 -8 8 -12 18 -8 21 3 4 0 4 -9 1 -9 -3 -34 12 -66 42 -65 61
-78 86 -58 107 9 8 16 19 15 23 0 4 7 26 17 48 9 22 17 45 18 50 1 6 3 14 3
19 4 20 65 -64 98 -133z"/>
<path d="M2113 2098 c-12 -6 -24 -17 -28 -25 -5 -16 5 -15 50 2 16 7 14 2 -7
-18 -31 -29 -35 -49 -14 -66 11 -9 18 -8 30 4 19 19 31 60 21 74 -9 16 18 13
41 -4 25 -19 44 -19 44 0 0 34 -90 56 -137 33z"/>
<path d="M2339 2061 c-13 -11 -21 -23 -17 -27 4 -4 14 -1 23 6 11 9 15 9 15 1
0 -6 -7 -14 -15 -17 -9 -4 -15 -19 -15 -35 0 -22 5 -29 20 -29 24 0 43 34 37
66 -3 20 0 24 19 24 12 0 26 -4 29 -10 8 -13 45 -13 45 -1 0 19 -45 41 -81 41
-21 0 -47 -8 -60 -19z"/>
<path d="M2180 1741 c-24 -45 27 -91 85 -77 59 15 54 91 -5 80 -15 -4 -31 -1
-34 5 -11 17 -34 13 -46 -8z"/>
<path d="M2836 2568 c-44 -50 -57 -78 -37 -78 13 0 101 104 101 119 0 22 -19
10 -64 -41z"/>
<path d="M2383 2480 c59 -52 84 -93 100 -165 16 -69 37 -85 37 -28 0 83 -104
233 -161 233 -18 0 -14 -7 24 -40z"/>
<path d="M4356 2378 c-129 -130 -208 -238 -285 -391 -24 -46 -41 -92 -39 -103
3 -13 19 9 50 71 97 190 238 375 366 480 63 52 73 65 46 65 -8 0 -70 -55 -138
-122z"/>
<path d="M2961 2427 c-53 -31 -75 -57 -51 -57 18 0 130 70 130 81 0 17 -24 9
-79 -24z"/>
<path d="M4885 2404 c-189 -65 -235 -85 -235 -102 0 -10 13 -82 30 -162 54
-269 155 -537 300 -803 77 -141 188 -315 214 -337 37 -30 23 3 -42 103 -89
136 -197 340 -263 492 -54 126 -142 381 -137 397 3 8 70 40 243 118 28 12 45
24 39 27 -13 4 -123 -38 -224 -86 -63 -30 -65 -30 -72 -11 -10 28 -51 250 -47
254 7 5 282 104 312 111 33 9 37 35 5 34 -13 0 -68 -16 -123 -35z"/>
<path d="M4434 2317 c-125 -126 -200 -233 -274 -390 -57 -122 -123 -324 -118
-364 3 -23 7 -18 21 32 64 216 135 378 228 520 29 44 104 131 166 194 62 63
113 116 113 118 0 18 -42 -16 -136 -110z"/>
<path d="M3004 2250 c-44 -17 -39 -33 7 -25 50 8 59 12 59 26 0 11 -37 11 -66
-1z"/>
<path d="M8232 2239 c2 -7 22 -15 44 -17 21 -2 72 -14 112 -28 87 -29 100 -30
78 -5 -34 37 -245 83 -234 50z"/>
<path d="M4810 2219 c-15 -27 -6 -49 19 -49 24 0 44 32 35 54 -9 23 -41 20
-54 -5z"/>
<path d="M8083 2175 c-18 -8 -33 -21 -33 -29 0 -10 -16 -16 -52 -21 -70 -9
-170 -34 -185 -47 -27 -22 0 -25 74 -7 43 10 99 19 125 19 67 0 101 15 93 40
-6 19 -2 20 70 20 42 0 105 -7 141 -16 36 -9 67 -14 71 -11 14 15 -23 37 -87
51 -85 20 -174 20 -217 1z"/>
<path d="M7525 1937 c-26 -20 -13 -60 27 -85 45 -29 56 -16 19 22 -17 18 -31
35 -31 38 0 8 81 -17 121 -38 l33 -17 -95 -37 c-51 -20 -127 -49 -166 -64 -40
-15 -73 -32 -73 -37 0 -14 10 -12 125 31 118 44 125 46 107 28 -7 -7 -12 -19
-12 -27 0 -11 -28 -25 -88 -44 -48 -15 -94 -32 -102 -37 -23 -14 -4 -23 28
-12 25 8 32 7 47 -10 15 -18 25 -20 70 -14 68 8 85 14 85 33 0 11 -6 14 -22 9
-47 -13 -118 -19 -118 -9 0 11 43 33 64 33 8 0 19 7 26 15 11 13 15 13 39 -4
14 -10 45 -28 68 -40 34 -17 42 -26 41 -48 -1 -53 13 -90 47 -123 28 -27 36
-30 40 -18 4 9 -4 27 -19 43 -30 32 -47 79 -43 119 2 26 -4 32 -66 64 -99 50
-76 79 32 41 66 -23 61 -22 61 -6 0 8 -10 18 -22 24 -21 9 -20 10 17 17 36 7
42 5 62 -21 33 -40 46 -98 39 -174 -3 -36 -8 -72 -10 -80 -15 -48 -16 -69 -2
-69 20 0 41 91 41 185 0 69 -4 87 -28 129 -15 27 -24 53 -20 57 5 4 37 18 73
31 59 21 65 26 68 54 2 19 -3 36 -13 44 -13 11 -32 7 -123 -27 -67 -25 -111
-37 -118 -31 -12 9 -169 68 -182 68 -5 0 -16 -6 -27 -13z m403 -43 c-2 -11
-36 -29 -98 -51 -52 -19 -100 -40 -106 -48 -11 -15 -94 -10 -94 6 0 5 6 9 13
9 7 0 71 22 142 49 72 28 134 50 138 50 5 1 7 -6 5 -15z"/>
<path d="M6623 1732 c-63 -18 -71 -38 -13 -28 99 15 116 16 130 6 27 -18 -9
-31 -67 -24 -63 7 -73 -10 -15 -25 51 -15 74 -14 100 5 45 31 10 85 -53 83
-16 -1 -54 -8 -82 -17z"/>
<path d="M7302 1684 c-26 -18 -29 -39 -6 -48 31 -12 55 3 52 32 -4 32 -17 37
-46 16z"/>
<path d="M6636 1561 c-16 -25 51 -91 93 -91 11 0 25 9 31 20 9 17 6 25 -14 45
-14 14 -33 25 -43 25 -10 0 -28 3 -39 6 -12 3 -25 1 -28 -5z m88 -37 c9 -8 16
-17 16 -20 0 -11 -30 -2 -51 16 -24 19 -24 19 -2 20 12 0 29 -7 37 -16z"/>
<path d="M5623 1458 c-18 -5 -40 -20 -49 -34 -16 -24 -16 -27 3 -52 27 -36 84
-46 185 -33 89 12 161 45 167 76 3 19 2 19 -16 3 -28 -25 -95 -47 -169 -54
-55 -6 -64 -5 -64 10 0 9 4 16 9 16 17 0 19 39 2 53 -26 23 -34 25 -68 15z"/>
<path d="M9325 1358 c3 -13 9 -44 12 -71 5 -43 4 -47 -13 -40 -40 14 -67 38
-81 71 -11 27 -17 31 -28 22 -30 -25 17 -106 76 -130 37 -16 36 -28 -1 -75
-35 -45 -29 -60 30 -70 112 -19 256 -123 332 -239 36 -57 78 -166 78 -207 0
-16 -3 -17 -27 -7 -16 6 -46 29 -68 50 -43 40 -55 46 -55 25 0 -30 52 -85 105
-113 l57 -29 -6 -65 c-7 -79 -57 -187 -114 -245 -21 -22 -46 -52 -56 -68 -18
-27 -18 -27 5 -27 38 0 134 108 177 198 36 75 37 80 37 192 0 86 -5 129 -19
170 -43 127 -121 242 -204 304 -57 41 -163 93 -208 102 l-32 6 23 41 c35 63
40 107 20 172 -11 34 -23 55 -33 55 -10 0 -12 -6 -7 -22z"/>
<path d="M4440 1349 c-28 -12 -79 -55 -135 -113 -75 -77 -106 -100 -184 -140
-140 -72 -174 -118 -173 -233 1 -88 50 -193 89 -193 11 0 7 9 -10 30 -64 76
-75 202 -23 281 21 31 48 50 128 90 90 45 114 63 198 149 86 87 103 100 154
115 144 42 275 -57 284 -215 4 -60 1 -75 -24 -119 -15 -28 -24 -54 -21 -57 10
-11 37 16 60 60 63 121 -19 315 -152 354 -59 18 -140 14 -191 -9z"/>
<path d="M7814 1285 c-10 -25 2 -119 20 -153 22 -43 63 -82 86 -82 30 0 31 15
4 41 -37 34 -66 95 -73 153 -6 50 -26 71 -37 41z"/>
<path d="M5504 1279 c-10 -16 -32 -171 -26 -186 2 -7 9 -13 16 -13 12 0 166
151 166 163 0 20 -19 6 -114 -82 l-38 -36 7 83 c6 79 4 95 -11 71z"/>
<path d="M5631 1053 c-35 -120 -81 -276 -102 -348 -40 -132 -47 -175 -29 -175
10 0 7 -9 111 357 41 145 76 263 79 263 3 0 16 -32 29 -71 28 -79 51 -101 81
-74 27 25 170 221 170 234 0 25 -20 6 -95 -89 -43 -55 -82 -100 -85 -100 -4 0
-22 50 -40 110 -18 61 -38 110 -45 110 -6 0 -39 -97 -74 -217z"/>
<path d="M5982 1251 c2 -5 39 -36 83 -69 202 -152 367 -322 453 -466 77 -129
107 -235 100 -360 -8 -147 -66 -236 -206 -318 l-57 -33 33 -3 c42 -4 131 47
172 98 121 152 130 341 27 555 -89 184 -266 374 -511 549 -74 53 -102 67 -94
47z"/>
<path d="M8950 1220 c-6 -22 -33 -67 -60 -101 -49 -61 -61 -89 -38 -89 19 0
96 87 113 126 17 41 20 104 5 104 -5 0 -14 -18 -20 -40z"/>
<path d="M1817 1154 c-12 -12 -8 -44 6 -45 6 0 21 -2 32 -5 38 -8 67 5 63 29
-2 18 -10 22 -48 25 -25 2 -49 0 -53 -4z"/>
<path d="M8159 1098 c-30 -63 -70 -105 -126 -130 -50 -22 -55 -38 -13 -38 64
0 130 50 169 127 24 49 26 66 8 82 -11 8 -19 0 -38 -41z"/>
<path d="M5580 1070 c0 -11 7 -20 15 -20 8 0 15 9 15 20 0 11 -7 20 -15 20 -8
0 -15 -9 -15 -20z"/>
<path d="M9157 1062 c-39 -43 -60 -159 -37 -203 19 -35 28 -20 32 54 4 61 14
98 46 160 8 15 -25 6 -41 -11z"/>
<path d="M3221 1031 c29 -39 28 -67 -10 -296 -57 -353 -91 -576 -91 -601 0
-41 24 -23 36 27 l11 44 119 -4 c65 -1 121 -5 123 -6 1 -2 -2 -39 -7 -82 -10
-71 -4 -109 13 -91 9 9 28 198 21 205 -4 4 -48 9 -99 11 -101 3 -117 6 -117
22 0 6 10 8 25 4 52 -13 45 50 -13 116 l-38 43 18 101 c43 241 68 445 57 473
-13 35 -38 63 -56 63 -10 0 -7 -8 8 -29z m4 -684 c33 -58 32 -63 -8 -31 -26
20 -33 32 -29 50 2 13 6 24 8 24 2 0 15 -20 29 -43z m-35 -98 c0 -5 -4 -9 -10
-9 -5 0 -10 7 -10 16 0 8 5 12 10 9 6 -3 10 -10 10 -16z"/>
<path d="M1703 1004 c-22 -10 -15 -43 10 -49 12 -3 58 -5 102 -3 74 3 80 5 77
23 -2 11 -5 21 -6 22 -5 6 -172 12 -183 7z"/>
<path d="M2154 965 c-10 -25 9 -37 57 -33 36 2 44 7 44 23 0 17 -8 20 -48 23
-36 2 -49 -1 -53 -13z"/>
<path d="M8553 931 c-22 -16 -49 -41 -61 -55 -28 -36 -55 -120 -47 -146 11
-34 33 -23 40 20 10 60 93 160 132 160 15 0 44 36 36 43 -15 16 -63 5 -100
-22z"/>
<path d="M5526 923 c-8 -19 8 -38 23 -29 16 10 13 46 -3 46 -8 0 -17 -8 -20
-17z"/>
<path d="M4576 901 c-3 -5 21 -199 54 -431 33 -232 60 -424 60 -426 0 -2 5 -4
10 -4 18 0 11 62 -45 435 -30 202 -55 375 -55 386 0 19 9 19 392 17 l393 -3
52 -344 c28 -189 56 -348 63 -355 7 -7 93 -15 228 -21 l217 -10 3 -30 c2 -16
8 -34 13 -40 15 -15 29 15 22 50 -10 52 -25 61 -98 58 -46 -1 -64 1 -59 9 5 7
3 8 -5 3 -8 -4 -23 3 -39 18 -24 22 -88 45 -77 27 8 -13 -45 -50 -70 -50 -25
0 -25 0 -6 23 11 12 29 33 40 45 12 14 25 21 32 16 8 -4 9 -3 5 4 -4 7 -2 12
3 12 6 0 11 7 11 15 0 8 -3 15 -8 15 -12 0 -52 -30 -85 -64 -16 -17 -33 -30
-37 -29 -4 1 -7 -5 -6 -15 1 -11 -8 -18 -23 -20 -32 -5 -50 14 -22 23 12 3 21
11 21 16 0 13 92 109 100 104 3 -2 7 5 7 16 1 10 -2 19 -7 19 -14 0 -94 -71
-108 -96 -16 -29 -37 -31 -39 -4 -1 13 20 43 53 78 30 31 54 60 54 64 0 26
-59 11 -97 -24 l-22 -21 -7 27 c-12 51 55 96 142 96 50 0 114 -18 114 -32 0
-4 6 -8 14 -8 14 0 115 -94 171 -160 17 -20 40 -42 52 -51 23 -16 25 -24 43
-149 11 -78 22 -102 40 -84 19 19 -12 207 -55 340 -8 24 2 27 235 74 99 20
138 39 124 61 -10 17 -51 9 -225 -41 -123 -36 -179 -57 -192 -72 l-17 -21 -63
60 c-82 79 -152 115 -226 115 -61 0 -100 -12 -139 -42 -14 -11 -27 -19 -28
-17 -2 2 -17 88 -34 193 -17 104 -36 204 -42 222 l-12 32 -407 0 c-232 0 -410
-4 -413 -9z"/>
<path d="M8767 873 c-15 -14 -5 -20 44 -26 49 -6 103 -32 161 -79 15 -12 31
-18 35 -14 15 15 -24 62 -77 94 -42 25 -65 32 -105 32 -29 0 -55 -3 -58 -7z"/>
<path d="M9416 847 c10 -27 -17 -101 -57 -154 -51 -69 -57 -83 -31 -83 28 0
100 84 113 132 15 56 8 112 -13 116 -12 2 -16 -1 -12 -11z"/>
<path d="M1657 832 c-82 -3 -103 -16 -77 -47 11 -13 64 -15 359 -15 350 0 371
2 371 36 0 6 -8 16 -17 20 -17 8 -472 12 -636 6z"/>
<path d="M8060 808 c0 -6 26 -35 58 -63 31 -29 67 -73 80 -98 19 -38 38 -57
58 -57 10 0 3 44 -12 73 -27 52 -63 96 -107 128 -41 30 -77 38 -77 17z"/>
<path d="M5482 778 c-7 -7 -12 -18 -12 -25 0 -18 29 -16 37 3 8 21 -10 37 -25
22z"/>
<path d="M4515 730 c-22 -16 -59 -34 -82 -41 -48 -13 -57 -29 -18 -29 48 0
165 64 165 91 0 16 -24 8 -65 -21z"/>
<path d="M9080 726 c-54 -15 -123 -50 -168 -84 -29 -22 -34 -23 -50 -10 -47
42 -142 71 -194 61 -37 -7 -36 -23 0 -23 43 0 119 -25 163 -54 21 -14 44 -26
50 -26 6 0 27 14 47 31 45 40 119 74 197 90 33 7 64 16 70 21 14 12 -63 8
-115 -6z"/>
<path d="M9141 698 c-65 -9 -138 -34 -128 -44 3 -3 37 1 76 10 38 9 83 16 100
16 31 0 50 15 28 22 -6 2 -41 0 -76 -4z"/>
<path d="M7915 658 c21 -101 127 -553 131 -560 12 -20 21 5 13 35 -5 17 -34
142 -64 277 -66 288 -63 280 -76 280 -7 0 -8 -13 -4 -32z"/>
<path d="M8574 648 c-10 -15 0 -20 119 -53 l112 -32 7 -74 c5 -41 17 -146 28
-233 11 -87 19 -160 17 -162 -4 -4 -205 51 -211 57 -2 2 -15 105 -30 229 -25
208 -35 256 -49 233 -3 -4 3 -80 14 -168 10 -88 22 -192 25 -232 4 -39 10 -76
13 -81 7 -11 219 -72 249 -72 11 0 27 -9 37 -20 11 -12 28 -20 39 -18 26 4 33
28 7 28 -11 0 -22 4 -26 10 -5 9 -54 414 -55 453 0 13 6 18 23 15 21 -3 23
-12 50 -228 15 -124 31 -234 36 -246 l9 -21 129 28 c70 16 139 29 152 29 23 0
23 1 16 73 l-6 74 32 1 c18 0 39 8 48 16 14 15 8 16 -62 16 -42 0 -77 4 -77 9
0 21 101 44 152 34 53 -10 44 -48 -23 -96 -21 -16 -39 -35 -39 -43 0 -19 6
-18 57 11 73 44 93 109 44 146 -22 16 -30 31 -34 66 -6 57 -32 92 -84 118 -23
11 -42 23 -42 28 -1 4 -1 26 -1 50 0 73 -1 74 -151 37 -74 -17 -155 -38 -181
-45 -26 -7 -50 -9 -55 -5 -4 4 -55 20 -113 35 -158 42 -170 44 -176 33z m630
-50 c14 -55 9 -65 -41 -71 -67 -8 -124 -29 -137 -50 -15 -24 6 -37 64 -37 l45
-1 -45 -23 c-25 -13 -53 -33 -64 -45 -21 -24 -15 -51 12 -51 15 0 18 -5 14
-25 -6 -33 15 -40 74 -23 51 14 79 46 30 34 -14 -3 -38 -9 -52 -12 -52 -13
-13 17 72 57 46 21 84 43 84 49 0 15 -14 13 -107 -20 -46 -16 -92 -30 -101
-30 -30 0 49 44 126 70 41 14 74 30 73 35 0 6 -45 12 -98 15 -101 5 -100 11 1
29 60 11 113 5 144 -15 27 -18 52 -71 52 -109 0 -20 -5 -25 -26 -25 -66 0
-144 -41 -144 -76 0 -9 13 -21 29 -27 22 -8 30 -19 35 -46 13 -81 17 -77 -104
-105 -61 -14 -118 -26 -128 -26 -16 0 -21 27 -46 241 -15 132 -26 242 -24 245
3 3 223 59 249 63 4 1 9 -9 13 -21z"/>
<path d="M1643 630 c-182 -6 -229 -15 -186 -38 22 -12 763 -20 781 -8 21 13
13 34 -15 40 -44 9 -381 13 -580 6z"/>
<path d="M3988 626 c-101 -27 -140 -85 -139 -210 1 -121 32 -171 111 -182 38
-5 50 -12 64 -35 68 -116 223 -145 303 -58 45 49 63 111 68 231 3 62 7 148 10
191 l4 77 -187 -1 c-116 0 -205 -5 -234 -13z m8 -82 c-3 -9 -6 -72 -6 -140 0
-123 0 -124 -23 -124 -39 0 -59 23 -68 80 -11 67 6 146 37 177 27 27 70 32 60
7z"/>
<path d="M5020 585 c0 -9 9 -15 23 -15 53 0 77 -75 35 -104 -30 -22 -54 -20
-79 5 -17 17 -20 29 -15 61 9 53 -14 47 -30 -8 -15 -53 2 -96 44 -113 44 -19
82 -3 109 45 29 51 29 76 -3 113 -28 34 -84 44 -84 16z"/>
<path d="M6216 549 c-43 -43 -57 -69 -38 -69 16 0 94 89 90 102 -3 9 -20 -2
-52 -33z"/>
<path d="M2273 526 c-141 -46 -269 -211 -274 -351 -2 -87 -1 -93 21 -115 28
-28 48 -25 84 13 17 18 52 41 78 50 30 12 59 33 83 63 41 50 53 53 82 21 20
-21 20 -25 7 -91 -15 -70 -12 -108 6 -90 5 5 14 34 20 64 6 29 12 56 15 59 3
2 62 19 132 37 69 18 131 38 136 43 20 20 -3 24 -63 11 -58 -12 -60 -12 -79
11 -25 31 -21 34 16 13 16 -10 37 -15 46 -11 40 15 4 80 -78 140 -32 24 -35
28 -15 23 14 -4 45 -9 70 -12 98 -13 85 56 -18 104 -69 31 -201 40 -269 18z
m239 -37 c55 -20 98 -53 85 -65 -3 -4 -45 3 -91 15 -143 36 -227 22 -109 -18
29 -10 71 -31 94 -46 41 -29 96 -91 87 -100 -2 -3 -41 20 -87 50 -73 48 -143
76 -157 62 -3 -2 18 -19 46 -37 64 -41 136 -120 118 -131 -8 -5 -37 16 -80 57
-39 37 -77 64 -89 64 -17 0 -6 -14 47 -65 56 -52 66 -66 54 -74 -10 -7 -21 -6
-35 5 -43 31 -80 54 -91 54 -5 0 -35 -25 -66 -55 -51 -50 -60 -55 -100 -55
-25 0 -60 5 -78 11 -31 11 -32 14 -28 53 7 59 32 106 93 173 112 124 236 156
387 102z"/>
<path d="M9495 500 c-3 -5 2 -24 11 -41 16 -32 16 -78 -2 -166 -5 -25 -3 -33
9 -33 21 0 37 22 53 76 16 55 5 115 -29 152 -22 24 -33 27 -42 12z"/>
<path d="M8377 458 c-108 -23 -207 -124 -207 -213 0 -36 17 -31 35 11 36 87
102 138 204 159 36 7 56 16 56 25 0 19 -43 28 -88 18z"/>
<path d="M1405 441 c-82 -5 -100 -9 -103 -23 -4 -22 45 -26 401 -33 271 -5
317 -2 317 26 0 5 -11 14 -24 19 -29 11 -450 18 -591 11z"/>
<path d="M6225 373 c28 -71 65 -259 65 -335 0 -29 4 -38 16 -38 15 0 16 10 10
83 -7 92 -38 232 -61 277 -17 32 -42 42 -30 13z"/>
<path d="M7428 315 c-88 -33 -179 -117 -232 -214 -39 -73 -26 -87 18 -18 20
32 41 55 45 52 5 -2 15 -34 22 -70 11 -56 16 -65 34 -65 l22 0 -25 90 -26 90
29 30 c16 17 56 44 89 60 100 50 172 37 215 -40 28 -50 31 -136 8 -193 -16
-37 -16 -37 7 -37 20 0 26 8 35 44 24 98 8 178 -48 239 -35 37 -43 41 -97 44
-34 1 -75 -3 -96 -12z"/>
<path d="M6154 229 c-3 -6 1 -18 9 -27 13 -13 19 -13 32 -2 12 10 13 16 4 26
-14 17 -35 18 -45 3z"/>
<path d="M8445 231 c-3 -6 2 -25 12 -43 13 -24 18 -54 17 -111 -1 -67 2 -77
17 -77 51 0 32 182 -24 228 -10 8 -17 9 -22 3z"/>
<path d="M1187 224 c-15 -15 -6 -42 16 -48 12 -3 176 -8 362 -12 332 -6 341
-6 365 14 53 43 28 47 -368 50 -202 2 -371 0 -375 -4z"/>
</g>
</svg>
